<svg xmlns="http://www.w3.org/2000/svg" viewBox="0 0 64 64" width="64" height="64" role="img" aria-label="Lisa's Café">
  <rect width="64" height="64" rx="14" fill="#B85C38"/>
  <!-- steam -->
  <g fill="none" stroke="#FBF6EE" stroke-width="2.4" stroke-linecap="round" opacity="0.9">
    <path d="M26 16c-2.2-2.4-2.2-4.8 0-7.2"/>
    <path d="M32 16c-2.2-2.4-2.2-4.8 0-7.2"/>
    <path d="M38 16c-2.2-2.4-2.2-4.8 0-7.2"/>
  </g>
  <!-- cup -->
  <path d="M16 24h26v9a13 13 0 0 1-13 13h0a13 13 0 0 1-13-13z" fill="#FBF6EE"/>
  <path d="M42 27h4.5a6.5 6.5 0 0 1 0 13H40" fill="none" stroke="#FBF6EE" stroke-width="3.2"/>
  <!-- saucer -->
  <rect x="13" y="50" width="32" height="4" rx="2" fill="#FBF6EE"/>
</svg>
